HIERARCHY
ROOT Hips
{
 OFFSET 0.000000 0.000000 0.000000
 CHANNELS 6 Xposition Yposition Zposition Yrotation Xrotation Zrotation
 JOINT Chest
 {
  OFFSET 0.000000 9.585900 0.002600
  CHANNELS 3 Yrotation Xrotation Zrotation
  JOINT Chest2
  {
   OFFSET 0.000000 9.601200 -0.005300
   CHANNELS 3 Yrotation Xrotation Zrotation
   JOINT Chest3
   {
    OFFSET 0.000000 9.561800 0.000000
    CHANNELS 3 Yrotation Xrotation Zrotation
    JOINT Chest4
    {
     OFFSET 0.000000 9.552100 0.000000
     CHANNELS 3 Yrotation Xrotation Zrotation
     JOINT Neck
     {
      OFFSET 0.000000 14.453000 0.000000
      CHANNELS 3 Yrotation Xrotation Zrotation
      JOINT Head
      {
       OFFSET 0.000000 8.936500 -0.011300
       CHANNELS 3 Yrotation Xrotation Zrotation
       End Site
       {
        OFFSET 0.000000 17.073600 -0.006000
       }
      }
     }
     JOINT RightCollar
     {
      OFFSET -2.921100 9.558500 0.000000
      CHANNELS 3 Yrotation Xrotation Zrotation
      JOINT RightShoulder
      {
       OFFSET -13.519700 0.000000 0.000000
       CHANNELS 3 Yrotation Xrotation Zrotation
       JOINT RightElbow
       {
        OFFSET 0.000000 -29.696600 0.000000
        CHANNELS 3 Yrotation Xrotation Zrotation
        JOINT RightWrist
        {
         OFFSET 0.000000 -24.004700 0.000000
         CHANNELS 3 Yrotation Xrotation Zrotation
         End Site
         {
          OFFSET 0.000000 -17.728500 0.000000
         }
        }
       }
      }
     }
     JOINT LeftCollar
     {
      OFFSET 2.921100 9.558500 0.000000
      CHANNELS 3 Yrotation Xrotation Zrotation
      JOINT LeftShoulder
      {
       OFFSET 13.519700 0.000000 0.000000
       CHANNELS 3 Yrotation Xrotation Zrotation
       JOINT LeftElbow
       {
        OFFSET 0.000000 -29.696600 0.000000
        CHANNELS 3 Yrotation Xrotation Zrotation
        JOINT LeftWrist
        {
         OFFSET 0.000000 -24.004700 0.000000
         CHANNELS 3 Yrotation Xrotation Zrotation
         End Site
         {
          OFFSET 0.000000 -17.728500 0.000000
         }
        }
       }
      }
     }
    }
   }
  }
 }
 JOINT RightHip
 {
  OFFSET -7.771700 -0.012900 -0.001300
  CHANNELS 3 Yrotation Xrotation Zrotation
  JOINT RightKnee
  {
   OFFSET 0.000000 -40.869800 0.001200
   CHANNELS 3 Yrotation Xrotation Zrotation
   JOINT RightAnkle
   {
    OFFSET 0.000000 -39.717900 0.002100
    CHANNELS 3 Yrotation Xrotation Zrotation
    JOINT RightToe
    {
     OFFSET 0.000000 -4.965400 11.033500
     CHANNELS 3 Yrotation Xrotation Zrotation
     End Site
     {
      OFFSET 0.000000 -1.423100 5.872300
     }
    }
   }
  }
 }
 JOINT LeftHip
 {
  OFFSET 7.771700 -0.012900 -0.001300
  CHANNELS 3 Yrotation Xrotation Zrotation
  JOINT LeftKnee
  {
   OFFSET 0.000000 -40.869800 0.001200
   CHANNELS 3 Yrotation Xrotation Zrotation
   JOINT LeftAnkle
   {
    OFFSET 0.000000 -39.717900 0.002100
    CHANNELS 3 Yrotation Xrotation Zrotation
    JOINT LeftToe
    {
     OFFSET 0.000000 -4.965400 11.033500
     CHANNELS 3 Yrotation Xrotation Zrotation
     End Site
     {
      OFFSET 0.000000 -1.423100 5.872300
     }
    }
   }
  }
 }
}
MOTION
Frames: 12
Frame Time: 0.008333
0.000000 85.388000 0.000000 0.000000 -5.767877 0.000000 0.000000 11.653817 0.000000 0.000000 -5.885947 0.000000 0.000000 -0.000000 0.000000 0.000000 -0.000000 0.000000 0.000000 12.528835 0.000000 0.000000 0.711642 0.000000 0.000000 -0.000000 0.000000 0.000000 0.000000 -90.000000 0.000000 -2.309062 0.000000 0.000000 2.309062 0.000000 0.000000 -0.000000 0.000000 0.000000 -0.000000 90.000000 0.000000 -2.309062 0.000000 0.000000 2.309062 0.000000 0.000000 8.520406 0.000000 0.000000 1.905762 0.000000 -0.000000 -4.658285 0.000000 0.000000 -0.000000 0.000000 0.000000 8.520406 0.000000 0.000000 1.905762 0.000000 -0.000000 -4.658285 0.000000 0.000000 -0.000000 0.000000
-188.648960 58.531669 -59.385214 161.118630 -14.874289 1.415753 3.112420 7.346682 1.593431 0.205450 0.335081 0.084850 0.201038 0.595569 0.104246 2.782187 6.778266 1.466845 0.168148 20.961736 -2.188139 0.917617 3.172341 -3.970414 4.029213 9.480728 0.740719 0.319107 -15.062214 -9.689574 44.674621 -51.974246 -37.334428 0.649042 9.334473 -26.156611 -5.793843 7.165562 -3.339964 8.105418 -13.314884 1.439672 -51.559792 -47.383047 36.555426 -4.856705 8.363672 19.626565 -11.798158 -57.168630 1.385182 -27.239520 71.806069 -27.245471 -3.683513 -4.412933 -1.313664 -0.282525 -0.254857 -0.009215 9.931639 -60.098521 9.674879 27.770977 69.037107 18.612678 -17.039780 -9.418237 6.841619 0.272358 -0.613008 -0.282568
-188.647216 58.472715 -59.404877 160.880084 -14.939034 1.394860 3.277436 7.422690 1.654895 0.211773 0.330223 0.079261 0.192457 0.600893 0.100277 2.880940 6.760658 1.467767 0.157391 20.971896 -2.179179 0.903601 3.185905 -3.953159 4.060435 9.463783 0.765539 0.415954 -15.117891 -9.722812 44.688375 -51.960024 -37.448015 0.642461 9.311812 -26.144756 -5.761193 7.322843 -3.285822 8.256868 -13.267798 1.301335 -51.663227 -47.672108 36.665726 -4.801904 8.327342 19.475784 -11.866770 -57.115448 1.682302 -27.207059 71.814736 -27.357028 -3.593994 -4.468924 -1.263439 -0.358127 -0.168945 -0.060023 9.675152 -60.032742 10.068999 28.105882 69.103005 18.900455 -17.102503 -9.461912 6.882924 0.284343 -0.598134 -0.273144
-188.652553 58.405375 -59.412389 160.651025 -14.917588 1.378079 3.470892 7.408616 1.718660 0.105950 0.348417 0.056654 0.254473 0.593331 0.108558 2.983971 6.740936 1.401194 0.166681 20.978498 -2.103012 0.890603 3.197639 -3.935971 4.084973 9.443148 0.852268 0.514283 -15.176212 -9.741289 44.726187 -51.971282 -37.601171 0.637884 9.290486 -26.124358 -5.775795 7.482021 -3.155843 8.450552 -13.197632 1.147859 -51.852546 -47.958199 36.866382 -4.799796 8.366218 19.248778 -11.987369 -57.157496 2.098974 -27.253077 71.782003 -27.645431 -3.589281 -4.504979 -1.159376 -0.380496 -0.069464 -0.089187 9.445522 -60.054984 10.410337 28.407244 69.158778 19.162086 -17.133827 -9.528917 6.918775 0.275204 -0.582759 -0.287142
-188.661659 58.335210 -59.412940 160.457543 -14.855116 1.356992 3.568689 7.374742 1.760619 0.128943 0.344930 0.057926 0.296482 0.580136 0.112839 3.009021 6.742070 1.368623 0.135605 20.995609 -2.114299 0.852500 3.224174 -3.875700 4.119906 9.429654 0.883489 0.600844 -15.246446 -9.734173 44.796587 -52.006748 -37.801167 0.637584 9.272964 -26.085542 -5.795756 7.625438 -3.073199 8.656728 -13.111568 0.996764 -52.103753 -48.244007 37.138040 -4.843907 8.463153 18.954652 -11.993074 -57.249016 2.405857 -27.313462 71.760078 -27.875974 -3.626670 -4.526139 -1.078358 -0.398185 0.025077 -0.097684 9.198787 -60.119560 10.712873 28.637632 69.197419 19.361799 -17.113966 -9.575737 6.963926 0.260678 -0.576642 -0.313090
-188.671351 58.266219 -59.410446 160.311497 -14.789425 1.324836 3.619738 7.346709 1.800408 0.151722 0.339244 0.058996 0.283851 0.585298 0.107256 3.079479 6.725876 1.346073 0.130155 20.995154 -2.100402 0.838651 3.222711 -3.848904 4.155592 9.424532 0.907858 0.671047 -15.328458 -9.701135 44.898332 -52.067150 -38.044778 0.648777 9.253066 -26.022789 -5.829949 7.793438 -2.988040 8.865974 -13.044629 0.841418 -52.390792 -48.532013 37.470626 -4.923248 8.593525 18.610057 -11.949392 -57.352244 2.631692 -27.392871 71.758088 -28.065693 -3.659077 -4.532336 -1.036165 -0.436226 0.101592 -0.086121 8.920998 -60.190644 10.982593 28.795726 69.211613 19.502850 -17.035731 -9.550528 7.016671 0.242675 -0.618520 -0.347651
-188.688438 58.197457 -59.398396 160.233149 -14.676286 1.306650 3.622184 7.271944 1.807985 0.154127 0.339203 0.057871 0.269484 0.592670 0.101754 3.141402 6.710299 1.327495 0.126504 20.989055 -2.088542 0.828801 3.211073 -3.826443 4.194060 9.418290 0.928830 0.722430 -15.413783 -9.650671 45.026424 -52.156431 -38.324559 0.673135 9.224725 -25.941578 -5.879261 7.991937 -2.903610 9.077403 -13.007252 0.680152 -52.708718 -48.825579 37.864898 -5.030236 8.734067 18.239469 -11.873908 -57.517948 2.776786 -27.480044 71.761984 -28.243150 -3.760700 -4.524907 -0.976659 -0.431958 0.160291 -0.058783 8.684457 -60.306927 11.131174 28.900363 69.198882 19.612595 -16.950547 -9.529053 7.075406 0.218908 -0.625857 -0.386216
-188.708707 58.129047 -59.376021 160.097744 -14.522343 1.311981 3.679398 7.162828 1.800041 0.156091 0.339332 0.057000 0.272882 0.592923 0.100146 3.175764 6.705658 1.310136 0.124651 20.978127 -2.078912 0.852476 3.188263 -3.817125 4.228850 9.430079 0.952571 0.765393 -15.522344 -9.593740 45.178018 -52.276826 -38.635976 0.700640 9.187554 -25.856078 -5.935135 8.205351 -2.824874 9.290572 -12.986649 0.516967 -53.073276 -49.128550 38.328604 -5.153494 8.874080 17.864757 -11.684553 -57.733205 2.883719 -27.575885 71.764981 -28.407864 -3.863525 -4.512182 -0.914407 -0.438377 0.226191 -0.032857 8.588494 -60.461577 11.197792 28.972047 69.162522 19.717410 -16.873488 -9.472893 7.137314 0.197176 -0.638810 -0.425198
-188.728549 58.062779 -59.351302 160.024441 -14.386728 1.309031 3.676386 7.073982 1.782254 0.196204 0.316961 0.067767 0.274421 0.593114 0.099419 3.162319 6.727954 1.285467 0.124913 20.963170 -2.071008 0.836708 3.161840 -3.798474 4.283458 9.392970 0.977978 0.776773 -15.586746 -9.524209 45.346923 -52.426258 -38.973366 0.721431 9.140195 -25.779723 -5.985268 8.402854 -2.761666 9.498619 -12.954119 0.367079 -53.490667 -49.448065 38.862970 -5.284243 9.010780 17.497482 -11.492589 -57.935184 2.937756 -27.687163 71.772012 -28.570761 -3.990563 -4.479372 -0.841915 -0.410618 0.280058 -0.026719 8.504135 -60.601012 11.199104 29.027737 69.102803 19.833236 -16.810391 -9.388955 7.201238 0.187724 -0.646865 -0.459397
-188.746989 57.998059 -59.322815 159.965445 -14.261883 1.303479 3.699150 6.973072 1.778547 0.138637 0.351150 0.048121 0.276737 0.594141 0.098037 3.195904 6.720019 1.277158 0.129108 20.943621 -2.063709 0.827621 3.126301 -3.782852 4.332705 9.382909 1.007559 0.791477 -15.684254 -9.450597 45.519365 -52.600748 -39.324880 0.734401 9.080702 -25.720544 -6.025864 8.564257 -2.718740 9.705953 -12.891576 0.236435 -53.952391 -49.791393 39.461231 -5.420528 9.144096 17.145632 -11.277841 -58.128194 2.961509 -27.798797 71.780303 -28.719432 -4.133425 -4.438969 -0.747622 -0.374779 0.328111 -0.043300 8.459938 -60.734099 11.157279 29.081999 69.027891 19.973135 -16.768327 -9.280502 7.259906 0.194109 -0.651693 -0.484004
-188.761106 57.935111 -59.290379 159.907464 -14.149791 1.283256 3.664220 6.918661 1.757412 0.139295 0.352176 0.047443 0.277938 0.595759 0.096918 3.260919 6.687365 1.291964 0.132466 20.932547 -2.059980 0.817903 3.102620 -3.773144 4.309818 9.442022 1.039384 0.841921 -15.827078 -9.389709 45.686291 -52.796006 -39.686357 0.740456 9.013094 -25.680245 -6.103999 8.718688 -2.709961 9.920677 -12.797353 0.116341 -54.437562 -50.163182 40.110340 -5.557249 9.275020 16.813624 -11.065348 -58.304654 2.992837 -27.901409 71.788689 -28.849910 -4.254051 -4.389286 -0.680810 -0.375108 0.367605 -0.037700 8.420981 -60.863487 11.123341 29.156252 68.944571 20.153928 -16.750829 -9.153956 7.304592 0.214634 -0.652286 -0.496226
-188.770359 57.874972 -59.256704 159.863893 -14.062821 1.248362 3.614505 6.885320 1.743473 0.159294 0.342215 0.054714 0.278515 0.597699 0.096270 3.304997 6.669822 1.303602 0.074555 20.941834 -2.073220 0.897725 3.059048 -3.776960 4.286655 9.483399 1.070149 0.888390 -15.954227 -9.318481 45.848582 -53.010766 -40.062260 0.738668 8.945263 -25.660700 -6.180937 8.856735 -2.711554 10.138893 -12.681283 -0.004419 -54.913893 -50.566575 40.793650 -5.685784 9.406624 16.496650 -10.872485 -58.449636 3.030382 -27.992086 71.795953 -28.966933 -4.340486 -4.336699 -0.650136 -0.407046 0.401545 0.000917 8.354558 -60.976289 11.112612 29.280355 68.856584 20.396024 -16.760126 -9.019495 7.328971 0.246887 -0.646516 -0.492961
